<?xml version="1.0" encoding="UTF-8"?>
<svg xmlns="http://www.w3.org/2000/svg" viewBox="0 0 512 512">
  <defs>
    <linearGradient id="bgGradient" x1="0%" y1="0%" x2="100%" y2="100%">
      <stop offset="0%" style="stop-color:#ffffff;stop-opacity:1" />
      <stop offset="100%" style="stop-color:#f0f9ff;stop-opacity:1" />
    </linearGradient>
    <filter id="shadow" x="-20%" y="-20%" width="140%" height="140%">
      <feGaussianBlur in="SourceAlpha" stdDeviation="15" />
      <feOffset dx="0" dy="10" result="offsetblur" />
      <feComponentTransfer>
        <feFuncA type="linear" slope="0.2" />
      </feComponentTransfer>
      <feMerge>
        <feMergeNode />
        <feMergeNode in="SourceGraphic" />
      </feMerge>
    </filter>
  </defs>
  
  <!-- Rounded Box Background -->
  <rect x="20" y="20" width="472" height="472" rx="100" fill="url(#bgGradient)" filter="url(#shadow)" />
  
  <!-- Centered MX Symbol -->
  <g transform="translate(106, 156) scale(8.5)">
    <polygon points="0 .16 9.43 9.61 6.39 12.65 4.28 10.54 4.29 25.99 0 21.97 0 .16" style="fill:#1dacdd;" />
    <polygon points="19.39 .16 6.5 13.07 12.57 13.07 19.32 6.33 24.48 11.49 10.17 25.99 18.13 23.86 30.79 11.63 19.39 .16" style="fill:#1dacdd;" />
    <polygon points="19.39 .16 6.5 13.07 12.57 13.07 19.32 6.33 19.39 .16" style="fill:#056d9b;" />
    <polygon points="35.85 0 35.92 6.17 30.76 11.33 35.89 16.53 35.89 22.44 24.45 11.47 35.85 0" style="fill:#056d9b;" />
    <polygon points="19.39 16.64 10.17 25.99 18.13 23.86 19.39 22.64 19.39 16.64" style="fill:#056d9b;" />
    <polygon points="20.54 21.53 19.39 22.64 19.39 16.64 20.54 15.48 20.54 21.53" style="fill:#178baa;" />
    <polygon points="19.32 6.33 20.54 7.55 20.54 1.31 19.37 .16 19.32 6.33" style="fill:#178baa;" />
  </g>
</svg>
